<?xml version="1.0" standalone="no"?>
<!DOCTYPE svg PUBLIC "-//W3C//DTD SVG 20010904//EN"
 "http://www.w3.org/TR/2001/REC-SVG-20010904/DTD/svg10.dtd">
<svg version="1.0" xmlns="http://www.w3.org/2000/svg"
 width="475.000000pt" height="475.000000pt" viewBox="0 0 475.000000 475.000000"
 preserveAspectRatio="xMidYMid meet">
<metadata>
Created by potrace 1.14, written by Peter Selinger 2001-2017
</metadata>
<g transform="translate(0.000000,475.000000) scale(0.100000,-0.100000)"
fill="#000000" stroke="none">
<path d="M2590 4734 c-36 -7 -76 -18 -90 -23 -23 -9 -216 -62 -350 -95 -13 -4
-114 -31 -212 -58 -94 -26 -122 -145 -47 -200 46 -34 46 -34 364 50 61 17 178
48 261 71 215 58 279 56 390 -15 60 -38 104 -96 129 -173 14 -44 16 -70 10
-135 -12 -135 -11 -161 8 -190 43 -65 152 -61 189 8 28 50 43 261 24 341 -43
186 -186 344 -368 406 -80 27 -218 33 -308 13z"/>
<path d="M950 4646 c-567 -155 -818 -256 -865 -346 -22 -42 -23 -1086 -1
-1128 31 -59 179 -138 382 -204 57 -18 104 -36 104 -39 0 -3 -28 -14 -62 -24
-172 -52 -355 -142 -407 -200 l-31 -36 0 -539 0 -540 37 -41 c40 -44 178 -116
313 -162 87 -29 262 -83 303 -93 28 -6 28 -7 9 -28 -10 -11 -54 -69 -96 -128
-93 -129 -168 -199 -245 -228 -95 -36 -123 -54 -143 -90 -36 -69 -14 -180 43
-214 25 -15 40 -17 87 -10 116 17 147 8 280 -84 51 -35 115 -73 141 -83 65
-24 150 -18 276 19 55 17 171 51 257 76 277 81 474 164 533 226 15 16 30 46
34 67 4 21 7 266 6 545 l-1 508 -39 41 c-47 48 -191 121 -345 173 -58 20 -111
39 -119 41 -17 6 -11 14 15 20 100 20 384 142 437 188 51 43 52 54 51 593 -1
274 -2 509 -3 521 -3 52 -92 118 -246 183 -64 26 -321 117 -340 119 -31 5 -95
27 -95 34 0 5 6 14 13 22 27 29 47 56 47 64 0 5 3 11 8 13 4 2 40 47 80 101
83 111 163 177 245 201 69 20 95 40 117 88 24 53 18 120 -14 169 -31 46 -52
53 -125 43 -113 -15 -141 -7 -269 80 -165 113 -217 124 -372 82z"/>
<path d="M3742 4512 c-39 -36 -50 -88 -28 -130 19 -36 14 -33 134 -97 235
-127 352 -276 352 -449 0 -28 -7 -88 -14 -133 -8 -45 -13 -93 -11 -105 16 -83
124 -119 187 -62 33 31 57 139 63 284 12 272 -153 499 -489 675 -106 55 -149
59 -194 17z"/>
<path d="M2878 3809 c-51 -26 -68 -62 -91 -189 -10 -50 -97 -508 -116 -610
-11 -58 -23 -121 -26 -140 -3 -19 -8 -42 -10 -50 -2 -8 -6 -26 -9 -40 -8 -46
-66 -355 -71 -380 -3 -14 -19 -97 -35 -185 -43 -226 -45 -230 -61 -227 -56 13
-228 42 -251 42 -35 0 -78 -42 -78 -76 0 -13 50 -146 111 -296 61 -150 145
-356 186 -458 80 -198 101 -230 156 -230 35 0 51 15 386 368 79 84 169 178
200 210 140 144 161 170 161 201 0 52 -35 81 -120 97 -41 8 -86 16 -100 19
-14 3 -38 7 -55 11 -16 3 -31 7 -33 8 -3 4 28 188 33 197 2 3 7 28 11 55 3 27
8 51 9 54 2 3 6 24 9 46 4 22 9 51 12 64 2 14 9 50 15 80 6 30 17 89 25 130 8
41 21 109 29 150 16 85 23 124 30 160 3 14 8 39 11 55 2 17 11 62 19 100 8 39
16 81 18 95 7 38 36 192 42 220 3 14 8 39 10 55 3 17 15 80 27 140 44 225 22
269 -163 316 -117 30 -233 33 -281 8z"/>
<path d="M4200 3413 c-14 -6 -48 -39 -244 -244 -50 -52 -174 -182 -276 -288
-102 -106 -188 -200 -192 -209 -19 -48 12 -107 62 -118 14 -2 72 -13 129 -24
57 -10 106 -21 109 -24 3 -3 -10 -83 -28 -178 -18 -95 -34 -182 -36 -193 -2
-11 -6 -31 -9 -45 -3 -14 -7 -36 -10 -50 -3 -14 -9 -47 -15 -75 -11 -59 -18
-92 -30 -160 -16 -90 -100 -529 -110 -575 -5 -25 -12 -60 -15 -77 -3 -18 -15
-79 -26 -135 -11 -57 -23 -119 -26 -138 -2 -19 -8 -49 -12 -66 -23 -86 8 -157
84 -194 85 -41 266 -69 345 -54 41 9 96 65 104 107 3 18 8 43 11 57 3 14 14
75 25 135 11 61 25 130 30 155 6 25 12 54 14 65 2 11 11 61 20 110 9 50 30
158 46 240 16 83 43 224 60 315 17 91 37 197 45 235 8 39 16 84 19 100 5 27
19 100 29 150 3 11 10 53 17 93 10 54 17 72 29 72 9 0 61 -10 116 -21 131 -27
135 -28 167 -12 31 15 48 41 48 72 0 17 -125 341 -160 416 -5 11 -44 106 -86
210 -42 105 -82 204 -89 220 -7 17 -18 45 -25 63 -22 56 -72 83 -120 65z"/>
<path d="M2489 862 c-57 -29 -70 -58 -76 -163 -10 -188 48 -342 176 -470 112
-111 250 -185 404 -214 92 -17 301 -13 382 9 191 51 341 182 373 322 17 74
-26 132 -102 139 -51 5 -93 -26 -121 -89 -51 -116 -197 -175 -404 -163 -210
12 -372 109 -448 267 -24 49 -27 67 -28 176 -2 153 -10 167 -106 197 -9 3 -32
-2 -50 -11z"/>
</g>
</svg>
